<mxfile host="drawio-plugin" modified="2021-08-16T12:16:33.170Z" agent="5.0 (Macintosh; Intel Mac OS X 11_5_1) AppleWebKit/537.36 (KHTML, like Gecko) Chrome/89.0.4389.114 Safari/537.36" etag="AUKFA9BXjhpPc-VQbQSA" version="14.7.4" type="embed"><diagram id="23iRSUPoRavnBvh4doch" name="Page-1"><mxGraphModel dx="1248" dy="537" grid="1" gridSize="10" guides="1" tooltips="1" connect="1" arrows="1" fold="1" page="1" pageScale="1" pageWidth="1169" pageHeight="827" math="0" shadow="0"><root><mxCell id="0"/><mxCell id="1" parent="0"/><mxCell id="2" value="" style="shape=singleArrow;whiteSpace=wrap;html=1;" parent="1" vertex="1"><mxGeometry x="30" y="262.5" width="70" height="30" as="geometry"/></mxCell><mxCell id="4" value="" style="endArrow=classic;html=1;" parent="1" edge="1"><mxGeometry width="50" height="50" relative="1" as="geometry"><mxPoint x="40" y="110" as="sourcePoint"/><mxPoint x="1030" y="110" as="targetPoint"/></mxGeometry></mxCell><mxCell id="6" value="" style="shape=singleArrow;whiteSpace=wrap;html=1;arrowWidth=0.2457142857142867;arrowSize=0.2017857142857146;" parent="1" vertex="1"><mxGeometry x="230" y="265" width="90" height="35" as="geometry"/></mxCell><mxCell id="7" value="cascading" style="ellipse;whiteSpace=wrap;html=1;aspect=fixed;" parent="1" vertex="1"><mxGeometry x="480" y="130" width="120" height="120" as="geometry"/></mxCell><mxCell id="8" value="multistream (sdk changes)" style="ellipse;whiteSpace=wrap;html=1;aspect=fixed;" parent="1" vertex="1"><mxGeometry x="640" y="350" width="150" height="150" as="geometry"/></mxCell><mxCell id="9" value="" style="shape=singleArrow;whiteSpace=wrap;html=1;arrowWidth=0.26285714285714445;arrowSize=0.08821428571428584;" parent="1" vertex="1"><mxGeometry x="230" y="400" width="400" height="40" as="geometry"/></mxCell><mxCell id="12" value="Simulcast" style="ellipse;whiteSpace=wrap;html=1;aspect=fixed;" parent="1" vertex="1"><mxGeometry x="320" y="220" width="120" height="120" as="geometry"/></mxCell><mxCell id="16" value="" style="shape=singleArrow;whiteSpace=wrap;html=1;arrowWidth=0.25;arrowSize=0.08392857142857153;" parent="1" vertex="1"><mxGeometry x="220" y="180" width="260" height="40" as="geometry"/></mxCell><mxCell id="17" value="Audio mixing&amp;nbsp;&lt;br&gt;(last K)" style="ellipse;whiteSpace=wrap;html=1;aspect=fixed;" parent="1" vertex="1"><mxGeometry x="890" y="210" width="130" height="130" as="geometry"/></mxCell><mxCell id="22" value="&lt;span&gt;Remove RS&lt;/span&gt;&lt;br&gt;&lt;span&gt;SDK changes&lt;/span&gt;&lt;br&gt;&lt;span&gt;larger room support&lt;br&gt;&lt;br&gt;&lt;/span&gt;" style="rounded=0;whiteSpace=wrap;html=1;" parent="1" vertex="1"><mxGeometry x="100" y="180" width="120" height="260" as="geometry"/></mxCell><mxCell id="24" value="" style="edgeStyle=orthogonalEdgeStyle;rounded=0;orthogonalLoop=1;jettySize=auto;html=1;" parent="1" source="23" target="22" edge="1"><mxGeometry relative="1" as="geometry"/></mxCell><mxCell id="23" value="Goal:&amp;nbsp;&lt;br&gt;Move to new architecture" style="text;html=1;strokeColor=none;fillColor=none;align=center;verticalAlign=middle;whiteSpace=wrap;rounded=0;" parent="1" vertex="1"><mxGeometry x="120" y="50" width="80" height="20" as="geometry"/></mxCell><mxCell id="26" value="" style="edgeStyle=orthogonalEdgeStyle;rounded=0;orthogonalLoop=1;jettySize=auto;html=1;entryX=0.45;entryY=0;entryDx=0;entryDy=0;entryPerimeter=0;" parent="1" target="12" edge="1"><mxGeometry relative="1" as="geometry"><mxPoint x="374" y="80" as="sourcePoint"/></mxGeometry></mxCell><mxCell id="25" value="Goal:&amp;nbsp;&lt;br&gt;Better quality for webminars" style="text;html=1;strokeColor=none;fillColor=none;align=center;verticalAlign=middle;whiteSpace=wrap;rounded=0;" parent="1" vertex="1"><mxGeometry x="330" y="50" width="80" height="20" as="geometry"/></mxCell><mxCell id="27" value="Goal:&lt;br&gt;1.room size scale&amp;nbsp;&lt;br&gt;2.SFU efficiency (reduce cost)" style="text;html=1;strokeColor=none;fillColor=none;align=center;verticalAlign=middle;whiteSpace=wrap;rounded=0;" parent="1" vertex="1"><mxGeometry x="455" y="40" width="170" height="40" as="geometry"/></mxCell><mxCell id="33" style="edgeStyle=orthogonalEdgeStyle;rounded=0;orthogonalLoop=1;jettySize=auto;html=1;exitX=0.5;exitY=1;exitDx=0;exitDy=0;entryX=0.5;entryY=0;entryDx=0;entryDy=0;" parent="1" source="27" target="7" edge="1"><mxGeometry relative="1" as="geometry"/></mxCell><mxCell id="37" value="" style="edgeStyle=orthogonalEdgeStyle;rounded=0;orthogonalLoop=1;jettySize=auto;html=1;" parent="1" source="34" target="36" edge="1"><mxGeometry relative="1" as="geometry"/></mxCell><mxCell id="34" value="Goal:&lt;br&gt;1. better performance&lt;br&gt;2.SFU efficiency (reduce cost)&lt;br&gt;3. reduce network complexity&amp;nbsp;" style="text;html=1;strokeColor=none;fillColor=none;align=center;verticalAlign=middle;whiteSpace=wrap;rounded=0;" parent="1" vertex="1"><mxGeometry x="640" y="40" width="170" height="50" as="geometry"/></mxCell><mxCell id="39" value="" style="edgeStyle=orthogonalEdgeStyle;rounded=0;orthogonalLoop=1;jettySize=auto;html=1;" parent="1" source="35" target="38" edge="1"><mxGeometry relative="1" as="geometry"/></mxCell><mxCell id="35" value="Goal:&lt;br&gt;1. better performance&lt;br&gt;2.SFU efficiency (reduce cost)&lt;br&gt;3. reduce network complexity&lt;br&gt;4. improve mobile expeirence&amp;nbsp;" style="text;html=1;strokeColor=none;fillColor=none;align=center;verticalAlign=middle;whiteSpace=wrap;rounded=0;" parent="1" vertex="1"><mxGeometry x="870" y="22.5" width="170" height="75" as="geometry"/></mxCell><mxCell id="36" value="" style="shape=waypoint;sketch=0;size=6;pointerEvents=1;points=[];fillColor=none;resizable=0;rotatable=0;perimeter=centerPerimeter;snapToPoint=1;" parent="1" vertex="1"><mxGeometry x="705" y="330" width="40" height="40" as="geometry"/></mxCell><mxCell id="38" value="" style="shape=waypoint;sketch=0;size=6;pointerEvents=1;points=[];fillColor=none;resizable=0;rotatable=0;perimeter=centerPerimeter;snapToPoint=1;" parent="1" vertex="1"><mxGeometry x="935" y="195" width="40" height="40" as="geometry"/></mxCell></root></mxGraphModel></diagram></mxfile>